<?xml version="1.0" encoding="utf-8"?>
<!-- Svg Vector Icons : http://www.onlinewebfonts.com/icon -->
<!DOCTYPE svg PUBLIC "-//W3C//DTD SVG 1.1//EN" "http://www.w3.org/Graphics/SVG/1.1/DTD/svg11.dtd">
<svg version="1.1" xmlns="http://www.w3.org/2000/svg" xmlns:xlink="http://www.w3.org/1999/xlink" x="0px" y="0px" viewBox="0 0 1000 1000" enable-background="new 0 0 1000 1000" xml:space="preserve">
<metadata> Svg Vector Icons : http://www.onlinewebfonts.com/icon </metadata>
<g><g transform="translate(0.000000,512.000000) scale(0.100000,-0.100000)"><path d="M2317.6,4987.1c-231.7-61.3-428.9-212.5-561-430.8c-124.5-208.7-126.4-229.8-126.4-1638.9V1651.8h-346.5c-404,0-551.4-26.8-719.9-126.4c-218.3-132.1-369.5-329.3-430.8-561c-28.7-114.9-32.5-273.8-32.5-1677.2c-1.9-1684.9-1.9-1679.2,105.3-1889.8c65.1-128.3,258.5-321.7,386.7-386.8c168.5-86.2,304.4-107.2,689.3-107.2h348.5v-425c0-461.4,17.2-589.7,103.4-760.1c65.1-128.3,216.3-285.3,348.5-365.7c231.7-139.8,68.9-132.1,2904.5-132.1c2824.1-1.9,2695.8-7.6,2917.9,124.5c143.6,86.2,248.9,191.5,331.2,327.4c113,183.8,132.1,300.6,132.1,796.5l1.9,434.6h346.5c404,0,551.4,26.8,719.9,126.4c218.3,132.1,369.5,329.3,430.8,561c28.7,114.9,32.6,273.8,32.6,1677.2c1.9,1679.1,1.9,1679.1-103.4,1884c-67,135.9-239.3,312.1-369.5,381c-180,95.7-312.1,118.7-706.5,118.7h-350.4l-1.9,1279c0,1424.5,0,1418.8-132.1,1638.9c-80.4,132.1-237.4,283.4-365.7,348.5c-210.6,105.3-118.7,103.4-2879.6,101.5C2646.9,5019.6,2434.4,5015.8,2317.6,4987.1z M7617.3,4359.1c28.7-21.1,72.8-68.9,97.6-103.4l42.1-63.2V2923.1V1651.8H5000H2242.9v1271.3v1269.4l44,65.1c23,34.5,72.8,84.2,107.2,107.2l65.1,44l2552.2-3.8l2552.2-5.7L7617.3,4359.1z M9135.6,997c34.5-24.9,82.3-68.9,103.4-97.6c40.2-53.6,40.2-61.3,40.2-1621.7c0-1552.8,0-1568.1-40.2-1619.8c-93.8-126.4-111.1-132.1-507.4-137.9l-361.9-5.7v304.4v304.4l74.7,21.1c105.3,32.5,166.6,88.1,202.9,185.7c57.4,149.3-5.7,310.2-149.3,373.4c-78.5,36.4-168.5,38.3-3498.1,38.3c-3329.6,0-3419.5-1.9-3498.1-38.3c-143.6-63.2-206.8-224-149.3-373.4c36.4-97.6,97.7-153.2,203-185.7l74.7-21.1v-304.4v-302.5h-352.3c-333.2,0-354.2,1.9-415.5,44c-34.5,23-84.2,72.8-107.2,107.2l-44,65.1v1545.1V822.7l44,65.1c23,34.5,72.8,84.2,107.2,107.2l65.1,44H5000h4072.5L9135.6,997z M7753.3-2922.3c-5.7-1028.1-5.7-1053.1-45.9-1104.7c-21.1-28.7-63.2-70.8-91.9-91.9c-51.7-40.2-57.4-40.2-2615.4-40.2c-2558,0-2563.7,0-2615.4,40.2c-28.7,21.1-70.8,63.2-91.9,91.9c-40.2,51.7-40.2,76.6-46,1104.7l-3.8,1051.2H5000h2757.1L7753.3-2922.3z"/><path d="M1505.8,552.8c-128.3-55.5-201-203-174.2-346.6c17.2-90,112.9-195.3,199.1-220.2c47.9-15.3,329.3-19.1,831-15.3c731.4,5.7,762,7.7,811.8,46c101.5,74.7,132.1,135.9,132.1,256.5c0,120.6-30.6,181.9-132.1,256.6c-51.7,38.3-78.5,40.2-831,44C1724,577.7,1551.7,573.8,1505.8,552.8z"/><path d="M3031.7-2355.6c-34.5-9.6-88.1-49.8-120.6-86.2c-49.8-55.5-57.4-78.5-47.9-134c13.4-82.3,57.4-134,155.1-178.1c72.8-34.5,174.2-36.4,1981.7-36.4c1807.4,0,1908.9,1.9,1981.7,36.4c97.6,44,141.7,95.7,155.1,176.2c13.4,82.3-44,160.8-153.2,210.6c-74.7,34.5-168.5,36.4-1983.6,34.5C3724.8-2334.5,3073.9-2342.1,3031.7-2355.6z"/><path d="M3033.6-3272.7c-95.7-32.5-168.5-118.7-168.5-206.8s44-143.6,153.2-193.4c72.8-34.5,174.2-36.4,1981.7-36.4c1807.4,0,1908.9,1.9,1981.7,36.4c107.2,49.8,153.2,105.3,153.2,193.4s-46,143.6-153.2,193.4c-72.8,34.5-172.3,36.4-1981.7,34.5C3757.4-3253.5,3073.9-3261.2,3033.6-3272.7z"/></g></g>
</svg>